<svg id="noun_reduction_2294588" xmlns="http://www.w3.org/2000/svg" width="123.005" height="124.44" viewBox="0 0 123.005 124.44">
  <path id="Trazado_36" data-name="Trazado 36" d="M104.838,53.167,65.887,14.215l-16.4,16.4L20.17,1.3,17.3,4.17,49.486,36.356l16.4-16.4,36.081,36.081h-7.38v4.1h14.351V45.787h-4.1Z" transform="translate(14.066 -1.3)" fill="#5b27d3"/>
  <path id="Trazado_37" data-name="Trazado 37" d="M20.451,5A18.414,18.414,0,0,0,7.125,36.161C3.845,37.6,2,39.646,2,41.9v71.753c0,5.33,9.225,8.2,18.451,8.2s18.451-2.87,18.451-8.2V41.9c0-2.255-1.845-4.305-5.125-5.74A18.452,18.452,0,0,0,20.451,5Zm0,4.1A14.351,14.351,0,1,1,6.1,23.451,14.262,14.262,0,0,1,20.451,9.1Zm0,108.654c-9.225,0-14.351-2.87-14.351-4.1v-4.92a31.582,31.582,0,0,0,14.351,2.87,31.582,31.582,0,0,0,14.351-2.87v4.92C34.8,114.884,29.676,117.754,20.451,117.754Zm0-10.25c-9.225,0-14.351-2.87-14.351-4.1v-4.92a31.582,31.582,0,0,0,14.351,2.87A31.582,31.582,0,0,0,34.8,98.484v4.92C34.8,104.634,29.676,107.5,20.451,107.5Zm0-10.25c-9.225,0-14.351-2.87-14.351-4.1v-4.92A31.582,31.582,0,0,0,20.451,91.1,31.582,31.582,0,0,0,34.8,88.233v4.92C34.8,94.383,29.676,97.253,20.451,97.253Zm0-10.25C11.225,87,6.1,84.133,6.1,82.9v-4.92a31.582,31.582,0,0,0,14.351,2.87A31.582,31.582,0,0,0,34.8,77.983V82.9C34.8,84.133,29.676,87,20.451,87Zm0-10.25c-9.225,0-14.351-2.87-14.351-4.1v-4.92A31.582,31.582,0,0,0,20.451,70.6,31.582,31.582,0,0,0,34.8,67.732v4.92C34.8,73.883,29.676,76.753,20.451,76.753Zm0-10.25C11.225,66.5,6.1,63.632,6.1,62.4v-4.92a31.582,31.582,0,0,0,14.351,2.87A31.582,31.582,0,0,0,34.8,57.482V62.4C34.8,63.632,29.676,66.5,20.451,66.5Zm0-10.25c-9.225,0-14.351-2.87-14.351-4.1v-4.92A31.582,31.582,0,0,0,20.451,50.1,31.582,31.582,0,0,0,34.8,47.232v4.92C34.8,53.382,29.676,56.252,20.451,56.252ZM34.8,41.9c0,1.23-5.125,4.1-14.351,4.1S6.1,43.131,6.1,41.9c0-.41,1.23-1.845,4.51-2.87a18.515,18.515,0,0,0,19.476,0C33.571,40.056,34.8,41.491,34.8,41.9Z" transform="translate(-2 2.585)" fill="#5b27d3"/>
  <path id="Trazado_38" data-name="Trazado 38" d="M41.451,29C32.225,29,23,31.87,23,37.2V88.452c0,5.33,9.225,8.2,18.451,8.2s18.451-2.87,18.451-8.2V37.2C59.9,31.87,50.676,29,41.451,29Zm0,63.552c-9.225,0-14.351-2.87-14.351-4.1v-4.92A31.582,31.582,0,0,0,41.451,86.4,31.582,31.582,0,0,0,55.8,83.532v4.92C55.8,89.682,50.676,92.552,41.451,92.552Zm0-10.25c-9.225,0-14.351-2.87-14.351-4.1v-4.92a31.582,31.582,0,0,0,14.351,2.87A31.582,31.582,0,0,0,55.8,73.282V78.2C55.8,79.432,50.676,82.3,41.451,82.3Zm0-10.25c-9.225,0-14.351-2.87-14.351-4.1v-4.92A31.582,31.582,0,0,0,41.451,65.9,31.582,31.582,0,0,0,55.8,63.031v4.92C55.8,69.182,50.676,72.052,41.451,72.052Zm0-10.25c-9.225,0-14.351-2.87-14.351-4.1v-4.92a31.582,31.582,0,0,0,14.351,2.87A31.582,31.582,0,0,0,55.8,52.781V57.7C55.8,58.931,50.676,61.8,41.451,61.8Zm0-10.25c-9.225,0-14.351-2.87-14.351-4.1v-4.92A31.582,31.582,0,0,0,41.451,45.4,31.582,31.582,0,0,0,55.8,42.531v4.92C55.8,48.681,50.676,51.551,41.451,51.551Zm0-10.25c-9.225,0-14.351-2.87-14.351-4.1s5.125-4.1,14.351-4.1S55.8,35.97,55.8,37.2,50.676,41.3,41.451,41.3Z" transform="translate(20.052 27.787)" fill="#5b27d3"/>
  <path id="Trazado_39" data-name="Trazado 39" d="M62.451,34C53.225,34,44,36.87,44,42.2v41c0,5.33,9.225,8.2,18.451,8.2S80.9,88.532,80.9,83.2v-41C80.9,36.87,71.676,34,62.451,34Zm0,53.3c-9.225,0-14.351-2.87-14.351-4.1v-4.92a31.582,31.582,0,0,0,14.351,2.87A31.582,31.582,0,0,0,76.8,78.282V83.2C76.8,84.432,71.676,87.3,62.451,87.3Zm0-10.25c-9.225,0-14.351-2.87-14.351-4.1v-4.92A31.582,31.582,0,0,0,62.451,70.9,31.582,31.582,0,0,0,76.8,68.031v4.92C76.8,74.182,71.676,77.052,62.451,77.052Zm0-10.25c-9.225,0-14.351-2.87-14.351-4.1v-4.92a31.582,31.582,0,0,0,14.351,2.87A31.582,31.582,0,0,0,76.8,57.781V62.7C76.8,63.931,71.676,66.8,62.451,66.8Zm0-10.25c-9.225,0-14.351-2.87-14.351-4.1v-4.92A31.582,31.582,0,0,0,62.451,50.4,31.582,31.582,0,0,0,76.8,47.531v4.92C76.8,53.681,71.676,56.551,62.451,56.551Zm0-10.25c-9.225,0-14.351-2.87-14.351-4.1s5.125-4.1,14.351-4.1S76.8,40.97,76.8,42.2,71.676,46.3,62.451,46.3Z" transform="translate(42.103 33.038)" fill="#5b27d3"/>
  <path id="Trazado_40" data-name="Trazado 40" d="M80.422,39.586,56.436,15.6,40.036,32,29.17,21.135l-2.87,2.87L40.036,37.741l16.4-16.4L77.552,42.456Z" transform="translate(23.517 13.716)" fill="#5b27d3"/>
  <rect id="Rectángulo_21" data-name="Rectángulo 21" width="4.1" height="8.61" transform="translate(39.582 27.517) rotate(-45)" fill="#5b27d3"/>
</svg>
