<?xml version="1.0" encoding="utf-8"?>
<!-- Generator: Adobe Illustrator 23.1.1, SVG Export Plug-In . SVG Version: 6.00 Build 0)  -->
<svg version="1.1" id="Grupo_45" xmlns="http://www.w3.org/2000/svg" xmlns:xlink="http://www.w3.org/1999/xlink" x="0px" y="0px"
	 viewBox="0 0 134.21 125.82" style="enable-background:new 0 0 134.21 125.82;" xml:space="preserve">
<style type="text/css">
	.st0{fill:#5B27D3;}
</style>
<g id="Grupo_25" transform="translate(0 0)">
	<g id="Grupo_10" transform="translate(69.104 104.532)">
		<rect id="Rectángulo_7" x="-3.72" y="-7" class="st0" width="3.71" height="12.07"/>
	</g>
	<g id="Grupo_11" transform="translate(8.899 26.698)">
		<path id="Trazado_23" class="st0" d="M115.94,72.98H0.26V-1.38h4.13v70.23h107.41V-1.38h4.13L115.94,72.98z"/>
	</g>
	<g id="Grupo_12">
		<path id="Trazado_24" class="st0" d="M133.1,21.19H0.9V8.79h50.79l8.26-8.26h14.1l8.26,8.26h50.79L133.1,21.19z M5.03,17.06
			h123.93v-4.13H80.6l-8.26-8.26H61.66l-8.26,8.26H5.03V17.06z"/>
	</g>
	<g id="Grupo_13" transform="translate(62.295 115.69)">
		<path id="Trazado_25" class="st0" d="M4.71,8.78c-4.56,0-8.26-3.7-8.26-8.26s3.7-8.26,8.26-8.26c4.56,0,8.26,3.7,8.26,8.26l0,0
			C12.96,5.08,9.27,8.77,4.71,8.78z M4.71-3.62c-2.28,0-4.13,1.85-4.13,4.13c0,2.28,1.85,4.13,4.13,4.13c2.28,0,4.13-1.85,4.13-4.13
			C8.83-1.77,6.99-3.61,4.71-3.62L4.71-3.62z"/>
	</g>
	<g id="Grupo_21" transform="translate(22.248 35.597)">
		<g id="Grupo_14" transform="translate(11.776 18.45)">
			
				<rect id="Rectángulo_8" x="-3.92" y="5.35" transform="matrix(0.7071 -0.7071 0.7071 0.7071 -2.5454 8.693)" class="st0" width="26.29" height="4.13"/>
		</g>
		<g id="Grupo_15" transform="translate(62.947 11.776)">
			
				<rect id="Rectángulo_9" x="-7.59" y="5.83" transform="matrix(0.7071 -0.7071 0.7071 0.7071 -3.9558 6.2433)" class="st0" width="26.29" height="4.13"/>
		</g>
		<g id="Grupo_16" transform="translate(40.698 18.45)">
			
				<rect id="Rectángulo_10" x="1.99" y="-4.44" transform="matrix(0.7071 -0.7071 0.7071 0.7071 -1.8684 4.1311)" class="st0" width="4.13" height="17.53"/>
		</g>
		<g id="Grupo_17" transform="translate(0 35.597)">
			<path id="Trazado_26" class="st0" d="M7.57,11.96c-4.56,0-8.26-3.7-8.26-8.26s3.7-8.26,8.26-8.26c4.56,0,8.26,3.7,8.26,8.26l0,0
				C15.83,8.26,12.13,11.96,7.57,11.96z M7.57-0.43c-2.28,0-4.13,1.85-4.13,4.13c0,2.28,1.85,4.13,4.13,4.13
				c2.28,0,4.13-1.85,4.13-4.13C11.7,1.42,9.85-0.43,7.57-0.43L7.57-0.43z"/>
		</g>
		<g id="Grupo_18" transform="translate(28.923 6.674)">
			<path id="Trazado_27" class="st0" d="M5.5,14.03c-4.56,0-8.26-3.7-8.26-8.26s3.7-8.26,8.26-8.26c4.56,0,8.26,3.7,8.26,8.26l0,0
				C13.76,10.33,10.06,14.03,5.5,14.03z M5.5,1.64c-2.28,0-4.13,1.85-4.13,4.13c0,2.28,1.85,4.13,4.13,4.13
				c2.28,0,4.13-1.85,4.13-4.13C9.63,3.49,7.78,1.64,5.5,1.64L5.5,1.64z"/>
		</g>
		<g id="Grupo_19" transform="translate(80.093)">
			<path id="Trazado_28" class="st0" d="M1.84,14.51c-4.56,0-8.26-3.7-8.26-8.26s3.7-8.26,8.26-8.26c4.56,0,8.26,3.7,8.26,8.26l0,0
				C10.1,10.81,6.4,14.51,1.84,14.51z M1.84,2.12c-2.28,0-4.13,1.85-4.13,4.13c0,2.28,1.85,4.13,4.13,4.13
				c2.28,0,4.13-1.85,4.13-4.13C5.97,3.97,4.12,2.12,1.84,2.12L1.84,2.12z"/>
		</g>
		<g id="Grupo_20" transform="translate(51.171 28.923)">
			<path id="Trazado_29" class="st0" d="M3.91,12.44c-4.56,0-8.26-3.7-8.26-8.26s3.7-8.26,8.26-8.26c4.56,0,8.26,3.7,8.26,8.26l0,0
				C12.17,8.74,8.47,12.44,3.91,12.44z M3.91,0.05c-2.28,0-4.13,1.85-4.13,4.13c0,2.28,1.85,4.13,4.13,4.13
				c2.28,0,4.13-1.85,4.13-4.13C8.04,1.9,6.19,0.05,3.91,0.05L3.91,0.05z"/>
		</g>
	</g>
	<g id="Grupo_22" transform="translate(69.104 9.073)">
		<rect id="Rectángulo_11" x="-3.72" y="0.26" class="st0" width="3.71" height="3.71"/>
	</g>
	<g id="Grupo_23" transform="translate(23.11 35.108)">
		<rect id="Rectángulo_12" x="-0.43" y="-1.64" class="st0" width="2.79" height="4.64"/>
	</g>
	<g id="Grupo_24" transform="translate(115.098 84.573)">
		<rect id="Rectángulo_13" x="-7" y="-5.61" class="st0" width="4.64" height="3.71"/>
	</g>
</g>
</svg>
