<?xml version="1.0" encoding="utf-8"?>
<!-- Generator: Adobe Illustrator 23.1.1, SVG Export Plug-In . SVG Version: 6.00 Build 0)  -->
<svg version="1.1" id="Capa_1" xmlns="http://www.w3.org/2000/svg" xmlns:xlink="http://www.w3.org/1999/xlink" x="0px" y="0px"
	 viewBox="0 0 178.89 46.99" style="enable-background:new 0 0 178.89 46.99;" xml:space="preserve">
<style type="text/css">
	.st0{fill:#FFFFFF;}
	.st1{enable-background:new    ;}
</style>
<path class="st0" d="M11.44,28.42l3.44-8.41l1.45-3.69l1.45,3.69l3.43,8.41h-2.5l-2.41-6l-2.43,6H11.44z"/>
<path class="st0" d="M44.84,11.49h2.22l8.13,20.26l8.16-20.26h2.22l-9.17,22.4h-2.39L44.84,11.49z"/>
<path class="st0" d="M63.57,33.89h-2.15l9.17-22.4h2.38l9.17,22.4H80l-2.25-5.51h-8.14l0.59-1.65h6.94l-5.38-13.27L63.57,33.89z"/>
<path class="st0" d="M122.83,33.89h-2.15l9.17-22.4h2.39l9.17,22.4h-2.15l-2.25-5.51h-8.14l0.59-1.65h6.94l-5.37-13.27L122.83,33.89
	z"/>
<path class="st0" d="M87.35,14.54v19.34h-1.91v-22.4h1.95l14.04,19.08V11.49h1.91v22.4h-1.88L87.35,14.54z"/>
<path class="st0" d="M113.98,13.13h-7.32v-1.64h16.59v1.65h-7.32v20.75h-1.95L113.98,13.13z"/>
<path class="st0" d="M142.76,16.67c0.97-1.72,2.39-3.14,4.11-4.1c1.75-0.98,3.72-1.48,5.73-1.46c3.23-0.08,6.32,1.29,8.43,3.73
	l-1.44,1.04c-0.83-0.98-1.87-1.76-3.04-2.28c-1.24-0.56-2.59-0.85-3.95-0.84c-1.67-0.02-3.31,0.41-4.75,1.26
	c-1.43,0.84-2.59,2.06-3.36,3.53c-1.63,3.24-1.63,7.06,0,10.3c0.77,1.48,1.93,2.71,3.36,3.56c1.44,0.85,3.08,1.29,4.75,1.27
	c1.3,0.01,2.59-0.27,3.76-0.82c1.05-0.48,2-1.14,2.82-1.95v-5.49h-4.14v-1.65h6.06v7.83c-3.66,3.94-9.53,4.87-14.22,2.25
	c-1.72-0.97-3.14-2.39-4.11-4.11C140.75,24.97,140.75,20.44,142.76,16.67L142.76,16.67z"/>
<path class="st0" d="M164.68,11.49h14.21v1.65h-12.3v8.4h7.31v1.65h-7.31v9.07h12.3v1.64h-14.21L164.68,11.49z"/>
<g class="st1">
	<path class="st0" d="M107.14,38v0.88h0.02c0.13-0.32,0.35-0.57,0.64-0.75c0.3-0.18,0.63-0.27,1.01-0.27c0.35,0,0.66,0.07,0.92,0.2
		s0.48,0.31,0.65,0.53s0.3,0.49,0.39,0.78s0.13,0.61,0.13,0.94c0,0.33-0.04,0.64-0.13,0.94c-0.08,0.3-0.21,0.56-0.39,0.78
		s-0.39,0.4-0.65,0.53s-0.57,0.19-0.92,0.19c-0.17,0-0.34-0.02-0.5-0.06s-0.32-0.1-0.47-0.19s-0.27-0.19-0.38-0.31
		c-0.11-0.13-0.2-0.27-0.26-0.44h-0.02v2.59h-0.57V38H107.14z M110.24,39.6c-0.06-0.24-0.15-0.45-0.27-0.63
		c-0.12-0.19-0.28-0.34-0.47-0.45c-0.19-0.12-0.42-0.17-0.69-0.17c-0.31,0-0.57,0.05-0.78,0.16c-0.21,0.11-0.38,0.25-0.5,0.43
		s-0.21,0.39-0.27,0.63c-0.05,0.24-0.08,0.49-0.08,0.75c0,0.24,0.03,0.48,0.08,0.71c0.06,0.24,0.15,0.45,0.28,0.63
		s0.3,0.34,0.5,0.45c0.21,0.12,0.46,0.17,0.76,0.17c0.27,0,0.5-0.06,0.69-0.17c0.19-0.12,0.35-0.27,0.47-0.45
		c0.12-0.19,0.21-0.4,0.27-0.63c0.06-0.24,0.08-0.47,0.08-0.71C110.33,40.07,110.3,39.84,110.24,39.6z"/>
	<path class="st0" d="M114.67,38.06c0.27,0.13,0.5,0.31,0.69,0.53s0.33,0.48,0.42,0.78c0.1,0.3,0.14,0.61,0.14,0.95
		c0,0.33-0.05,0.65-0.14,0.95c-0.1,0.3-0.24,0.56-0.42,0.78s-0.42,0.4-0.69,0.53s-0.59,0.19-0.94,0.19s-0.67-0.06-0.94-0.19
		c-0.27-0.13-0.5-0.3-0.69-0.53c-0.19-0.22-0.33-0.48-0.42-0.78c-0.1-0.3-0.14-0.61-0.14-0.95c0-0.34,0.05-0.65,0.14-0.95
		c0.1-0.3,0.24-0.56,0.42-0.78c0.19-0.22,0.41-0.4,0.69-0.53c0.27-0.13,0.58-0.2,0.94-0.2S114.4,37.93,114.67,38.06z M113.02,38.51
		c-0.2,0.11-0.37,0.26-0.51,0.45s-0.24,0.4-0.3,0.63c-0.07,0.24-0.1,0.48-0.1,0.72c0,0.25,0.03,0.49,0.1,0.72
		c0.07,0.24,0.17,0.45,0.3,0.63c0.13,0.19,0.3,0.34,0.51,0.45c0.2,0.11,0.44,0.17,0.71,0.17s0.51-0.06,0.71-0.17
		c0.2-0.11,0.37-0.26,0.51-0.45c0.13-0.19,0.24-0.4,0.31-0.63c0.07-0.24,0.1-0.48,0.1-0.72c0-0.25-0.03-0.49-0.1-0.72
		c-0.07-0.24-0.17-0.45-0.31-0.63s-0.3-0.34-0.51-0.45c-0.2-0.11-0.44-0.17-0.71-0.17S113.23,38.39,113.02,38.51z"/>
	<path class="st0" d="M116.91,38l1.19,3.97h0.02l1.13-3.97h0.64l1.13,3.97h0.02l1.19-3.97h0.6l-1.49,4.64h-0.62l-1.14-3.9h-0.02
		l-1.13,3.9h-0.62L116.3,38H116.91z"/>
	<path class="st0" d="M123.85,41.1c0.06,0.22,0.15,0.42,0.27,0.59s0.28,0.32,0.48,0.43c0.19,0.11,0.42,0.17,0.69,0.17
		c0.41,0,0.74-0.11,0.97-0.32s0.4-0.5,0.49-0.86h0.57c-0.12,0.53-0.34,0.93-0.66,1.22c-0.32,0.29-0.77,0.43-1.36,0.43
		c-0.37,0-0.68-0.06-0.95-0.19s-0.48-0.31-0.65-0.53s-0.29-0.49-0.37-0.78c-0.08-0.3-0.12-0.61-0.12-0.94c0-0.31,0.04-0.61,0.12-0.9
		c0.08-0.29,0.21-0.56,0.37-0.79s0.38-0.42,0.65-0.56c0.27-0.14,0.58-0.21,0.95-0.21c0.37,0,0.69,0.08,0.95,0.22
		c0.26,0.15,0.48,0.35,0.64,0.59c0.16,0.24,0.28,0.52,0.35,0.84c0.07,0.31,0.1,0.63,0.09,0.96h-3.57
		C123.76,40.67,123.79,40.88,123.85,41.1z M126.65,39.37c-0.07-0.2-0.17-0.37-0.29-0.53s-0.28-0.28-0.46-0.37s-0.38-0.14-0.61-0.14
		c-0.23,0-0.44,0.05-0.62,0.14s-0.33,0.22-0.46,0.37s-0.23,0.33-0.3,0.53c-0.08,0.2-0.12,0.41-0.15,0.62h3
		C126.76,39.77,126.72,39.57,126.65,39.37z"/>
	<path class="st0" d="M128.62,38v1.09h0.02c0.14-0.38,0.37-0.67,0.67-0.87c0.3-0.2,0.66-0.3,1.08-0.28v0.57
		c-0.26-0.01-0.49,0.02-0.7,0.1c-0.21,0.08-0.39,0.2-0.54,0.35c-0.15,0.15-0.27,0.33-0.35,0.53c-0.08,0.21-0.13,0.43-0.13,0.68v2.47
		h-0.57V38H128.62z"/>
	<path class="st0" d="M131.18,41.1c0.06,0.22,0.15,0.42,0.27,0.59s0.28,0.32,0.48,0.43c0.19,0.11,0.42,0.17,0.69,0.17
		c0.41,0,0.74-0.11,0.97-0.32s0.4-0.5,0.49-0.86h0.57c-0.12,0.53-0.34,0.93-0.66,1.22c-0.32,0.29-0.77,0.43-1.36,0.43
		c-0.37,0-0.68-0.06-0.95-0.19s-0.48-0.31-0.65-0.53s-0.29-0.49-0.37-0.78c-0.08-0.3-0.12-0.61-0.12-0.94c0-0.31,0.04-0.61,0.12-0.9
		c0.08-0.29,0.21-0.56,0.37-0.79s0.38-0.42,0.65-0.56c0.27-0.14,0.58-0.21,0.95-0.21c0.37,0,0.69,0.08,0.95,0.22
		c0.26,0.15,0.48,0.35,0.64,0.59c0.16,0.24,0.28,0.52,0.35,0.84c0.07,0.31,0.1,0.63,0.09,0.96h-3.57
		C131.1,40.67,131.13,40.88,131.18,41.1z M133.99,39.37c-0.07-0.2-0.17-0.37-0.29-0.53s-0.28-0.28-0.46-0.37s-0.38-0.14-0.61-0.14
		c-0.23,0-0.44,0.05-0.62,0.14s-0.33,0.22-0.46,0.37s-0.23,0.33-0.3,0.53c-0.08,0.2-0.12,0.41-0.15,0.62h3
		C134.09,39.77,134.06,39.57,133.99,39.37z"/>
	<path class="st0" d="M138.99,42.63v-0.88h-0.02c-0.06,0.15-0.15,0.29-0.26,0.41c-0.12,0.13-0.25,0.23-0.4,0.32s-0.31,0.15-0.48,0.2
		s-0.34,0.07-0.51,0.07c-0.35,0-0.66-0.06-0.92-0.19c-0.26-0.13-0.48-0.31-0.65-0.53s-0.3-0.49-0.39-0.78
		c-0.08-0.3-0.13-0.61-0.13-0.94c0-0.33,0.04-0.64,0.13-0.94c0.08-0.3,0.21-0.56,0.39-0.78s0.39-0.4,0.65-0.53
		c0.26-0.13,0.57-0.2,0.92-0.2c0.17,0,0.34,0.02,0.51,0.06c0.16,0.04,0.32,0.11,0.46,0.19c0.14,0.09,0.27,0.19,0.38,0.32
		c0.11,0.13,0.2,0.27,0.26,0.44h0.02v-2.66h0.57v6.42H138.99z M135.88,41.03c0.06,0.24,0.15,0.45,0.27,0.63s0.28,0.34,0.47,0.45
		c0.19,0.12,0.42,0.17,0.69,0.17c0.3,0,0.55-0.06,0.76-0.17c0.21-0.12,0.38-0.27,0.5-0.45s0.22-0.4,0.28-0.63
		c0.06-0.24,0.08-0.47,0.08-0.71c0-0.24-0.03-0.48-0.08-0.71s-0.15-0.45-0.28-0.63s-0.3-0.34-0.5-0.45
		c-0.21-0.12-0.46-0.17-0.76-0.17c-0.27,0-0.5,0.06-0.69,0.17c-0.19,0.12-0.35,0.27-0.47,0.45s-0.21,0.4-0.27,0.63
		s-0.09,0.47-0.09,0.71C135.8,40.55,135.83,40.79,135.88,41.03z"/>
	<path class="st0" d="M143.65,36.22v2.66h0.02c0.06-0.17,0.15-0.31,0.26-0.44c0.11-0.13,0.24-0.23,0.38-0.32s0.3-0.15,0.47-0.19
		s0.34-0.06,0.5-0.06c0.35,0,0.66,0.07,0.92,0.2s0.48,0.31,0.65,0.53s0.3,0.49,0.39,0.78s0.13,0.61,0.13,0.94
		c0,0.33-0.04,0.64-0.13,0.94c-0.08,0.3-0.21,0.56-0.39,0.78s-0.39,0.4-0.65,0.53s-0.57,0.19-0.92,0.19c-0.38,0-0.71-0.09-1.01-0.26
		c-0.3-0.17-0.51-0.42-0.64-0.75h-0.02v0.88h-0.52v-6.42H143.65z M146.71,39.6c-0.06-0.24-0.15-0.45-0.27-0.63
		c-0.12-0.19-0.28-0.34-0.47-0.45c-0.19-0.12-0.42-0.17-0.69-0.17c-0.3,0-0.55,0.06-0.76,0.17c-0.21,0.12-0.37,0.27-0.5,0.45
		s-0.22,0.4-0.28,0.63c-0.06,0.24-0.08,0.47-0.08,0.71c0,0.24,0.03,0.48,0.08,0.71c0.06,0.24,0.15,0.45,0.28,0.63s0.3,0.34,0.5,0.45
		c0.21,0.12,0.46,0.17,0.76,0.17c0.27,0,0.5-0.06,0.69-0.17c0.19-0.12,0.35-0.27,0.47-0.45c0.12-0.19,0.21-0.4,0.27-0.63
		c0.06-0.24,0.08-0.47,0.08-0.71C146.8,40.07,146.77,39.84,146.71,39.6z"/>
	<path class="st0" d="M148.33,38l1.53,3.96l1.43-3.96h0.57l-2.01,5.34c-0.08,0.2-0.16,0.36-0.23,0.49
		c-0.07,0.13-0.15,0.23-0.24,0.31s-0.19,0.13-0.31,0.16s-0.26,0.05-0.45,0.05c-0.11-0.01-0.2-0.01-0.26-0.01s-0.12-0.01-0.17-0.03
		v-0.48c0.07,0.01,0.13,0.02,0.19,0.03c0.06,0.01,0.13,0.01,0.19,0.01c0.13,0,0.23-0.02,0.31-0.05c0.08-0.04,0.15-0.09,0.21-0.15
		c0.06-0.06,0.11-0.14,0.15-0.23s0.09-0.19,0.13-0.3l0.2-0.52L147.72,38H148.33z"/>
</g>
<g class="st1">
	<path class="st0" d="M154.9,36.22h1.02v2.38h0.02c0.13-0.21,0.31-0.38,0.56-0.53c0.25-0.14,0.53-0.21,0.83-0.21
		c0.51,0,0.91,0.13,1.2,0.4c0.29,0.26,0.44,0.66,0.44,1.19v3.19h-1.02v-2.92c-0.01-0.37-0.09-0.63-0.23-0.79
		c-0.14-0.17-0.37-0.25-0.67-0.25c-0.17,0-0.33,0.03-0.47,0.09c-0.14,0.06-0.25,0.15-0.35,0.26c-0.1,0.11-0.17,0.24-0.22,0.39
		c-0.05,0.15-0.08,0.31-0.08,0.48v2.74h-1.02V36.22z"/>
	<path class="st0" d="M163.95,41.6c0,0.13,0.02,0.22,0.05,0.27c0.03,0.05,0.1,0.08,0.19,0.08c0.03,0,0.07,0,0.11,0
		s0.09-0.01,0.14-0.02v0.71c-0.04,0.01-0.08,0.03-0.14,0.04c-0.06,0.01-0.12,0.03-0.18,0.04s-0.12,0.02-0.18,0.03
		c-0.06,0.01-0.11,0.01-0.15,0.01c-0.21,0-0.38-0.04-0.52-0.13s-0.23-0.23-0.27-0.44c-0.2,0.2-0.45,0.34-0.75,0.43
		c-0.3,0.09-0.58,0.13-0.86,0.13c-0.21,0-0.41-0.03-0.6-0.09c-0.19-0.06-0.36-0.14-0.51-0.25c-0.15-0.11-0.26-0.25-0.35-0.42
		s-0.13-0.37-0.13-0.6c0-0.29,0.05-0.52,0.16-0.7c0.1-0.18,0.24-0.32,0.41-0.42s0.36-0.18,0.58-0.22s0.43-0.08,0.64-0.1
		c0.19-0.04,0.36-0.06,0.53-0.08c0.17-0.01,0.32-0.04,0.44-0.08s0.23-0.09,0.31-0.17s0.11-0.19,0.11-0.34
		c0-0.13-0.03-0.24-0.09-0.32c-0.06-0.08-0.14-0.15-0.23-0.19s-0.2-0.08-0.31-0.09c-0.11-0.02-0.22-0.02-0.32-0.02
		c-0.29,0-0.52,0.06-0.71,0.18c-0.19,0.12-0.29,0.3-0.32,0.56h-1.02c0.02-0.3,0.09-0.55,0.22-0.75c0.13-0.2,0.29-0.36,0.48-0.48
		c0.19-0.12,0.41-0.2,0.66-0.25c0.25-0.05,0.5-0.07,0.75-0.07c0.23,0,0.45,0.02,0.67,0.07s0.42,0.13,0.6,0.23
		c0.18,0.11,0.32,0.25,0.43,0.42c0.11,0.17,0.16,0.38,0.16,0.62V41.6z M162.93,40.3c-0.16,0.1-0.35,0.16-0.58,0.18
		c-0.23,0.02-0.46,0.05-0.68,0.09c-0.11,0.02-0.21,0.04-0.31,0.08c-0.1,0.03-0.19,0.08-0.27,0.13s-0.14,0.13-0.18,0.22
		s-0.07,0.21-0.07,0.34c0,0.11,0.03,0.21,0.1,0.29c0.07,0.08,0.15,0.14,0.24,0.18s0.19,0.08,0.31,0.09c0.11,0.02,0.21,0.03,0.3,0.03
		c0.11,0,0.24-0.02,0.37-0.04c0.13-0.03,0.26-0.08,0.37-0.15c0.12-0.07,0.21-0.16,0.29-0.27c0.08-0.11,0.12-0.25,0.12-0.41V40.3z"/>
	<path class="st0" d="M164.6,37.99h1.11l1.18,3.57h0.02l1.13-3.57h1.06l-1.66,4.65h-1.15L164.6,37.99z"/>
	<path class="st0" d="M173.62,41.6c0,0.13,0.02,0.22,0.05,0.27c0.03,0.05,0.1,0.08,0.19,0.08c0.03,0,0.07,0,0.11,0
		s0.09-0.01,0.14-0.02v0.71c-0.04,0.01-0.08,0.03-0.14,0.04c-0.06,0.01-0.12,0.03-0.18,0.04s-0.12,0.02-0.18,0.03
		c-0.06,0.01-0.11,0.01-0.15,0.01c-0.21,0-0.38-0.04-0.52-0.13s-0.23-0.23-0.27-0.44c-0.2,0.2-0.45,0.34-0.75,0.43
		c-0.3,0.09-0.58,0.13-0.86,0.13c-0.21,0-0.41-0.03-0.6-0.09c-0.19-0.06-0.36-0.14-0.51-0.25c-0.15-0.11-0.26-0.25-0.35-0.42
		s-0.13-0.37-0.13-0.6c0-0.29,0.05-0.52,0.16-0.7c0.1-0.18,0.24-0.32,0.41-0.42s0.36-0.18,0.58-0.22s0.43-0.08,0.64-0.1
		c0.19-0.04,0.36-0.06,0.53-0.08c0.17-0.01,0.32-0.04,0.44-0.08s0.23-0.09,0.31-0.17s0.11-0.19,0.11-0.34
		c0-0.13-0.03-0.24-0.09-0.32c-0.06-0.08-0.14-0.15-0.23-0.19s-0.2-0.08-0.31-0.09c-0.11-0.02-0.22-0.02-0.32-0.02
		c-0.29,0-0.52,0.06-0.71,0.18c-0.19,0.12-0.29,0.3-0.32,0.56h-1.02c0.02-0.3,0.09-0.55,0.22-0.75c0.13-0.2,0.29-0.36,0.48-0.48
		c0.19-0.12,0.41-0.2,0.66-0.25c0.25-0.05,0.5-0.07,0.75-0.07c0.23,0,0.45,0.02,0.67,0.07s0.42,0.13,0.6,0.23
		c0.18,0.11,0.32,0.25,0.43,0.42c0.11,0.17,0.16,0.38,0.16,0.62V41.6z M172.59,40.3c-0.16,0.1-0.35,0.16-0.58,0.18
		c-0.23,0.02-0.46,0.05-0.68,0.09c-0.11,0.02-0.21,0.04-0.31,0.08c-0.1,0.03-0.19,0.08-0.27,0.13s-0.14,0.13-0.18,0.22
		s-0.07,0.21-0.07,0.34c0,0.11,0.03,0.21,0.1,0.29c0.07,0.08,0.15,0.14,0.24,0.18s0.19,0.08,0.31,0.09c0.11,0.02,0.21,0.03,0.3,0.03
		c0.11,0,0.24-0.02,0.37-0.04c0.13-0.03,0.26-0.08,0.37-0.15c0.12-0.07,0.21-0.16,0.29-0.27c0.08-0.11,0.12-0.25,0.12-0.41V40.3z"/>
	<path class="st0" d="M175.49,41.14c0.03,0.3,0.14,0.51,0.34,0.63c0.2,0.12,0.43,0.18,0.71,0.18c0.1,0,0.21-0.01,0.33-0.02
		c0.12-0.02,0.24-0.04,0.35-0.09c0.11-0.04,0.2-0.1,0.26-0.18c0.07-0.08,0.1-0.19,0.09-0.32s-0.05-0.24-0.14-0.32
		c-0.09-0.08-0.21-0.15-0.35-0.2c-0.14-0.05-0.3-0.09-0.48-0.13s-0.36-0.08-0.55-0.12c-0.19-0.04-0.38-0.09-0.55-0.15
		s-0.33-0.14-0.48-0.24c-0.14-0.1-0.25-0.23-0.34-0.39c-0.08-0.16-0.13-0.35-0.13-0.59c0-0.25,0.06-0.46,0.18-0.63
		c0.12-0.17,0.28-0.31,0.47-0.41c0.19-0.1,0.4-0.18,0.63-0.22s0.45-0.06,0.66-0.06c0.24,0,0.47,0.03,0.69,0.08
		c0.22,0.05,0.42,0.13,0.59,0.25c0.18,0.11,0.32,0.26,0.44,0.44s0.19,0.4,0.22,0.66h-1.07c-0.05-0.25-0.16-0.41-0.34-0.5
		c-0.18-0.08-0.38-0.12-0.61-0.12c-0.07,0-0.16,0.01-0.26,0.02c-0.1,0.01-0.19,0.03-0.28,0.07s-0.16,0.08-0.22,0.14
		c-0.06,0.06-0.09,0.15-0.09,0.25c0,0.13,0.04,0.23,0.13,0.31c0.09,0.08,0.2,0.14,0.34,0.19s0.3,0.09,0.48,0.13
		c0.18,0.04,0.37,0.08,0.56,0.12c0.19,0.04,0.37,0.09,0.55,0.15c0.18,0.06,0.34,0.14,0.48,0.24c0.14,0.1,0.25,0.23,0.34,0.39
		c0.09,0.16,0.13,0.35,0.13,0.58c0,0.28-0.06,0.51-0.19,0.7c-0.13,0.19-0.29,0.35-0.49,0.47c-0.2,0.12-0.42,0.21-0.67,0.26
		c-0.25,0.05-0.49,0.08-0.73,0.08c-0.29,0-0.56-0.03-0.81-0.1c-0.25-0.07-0.46-0.17-0.65-0.3c-0.18-0.13-0.33-0.3-0.43-0.5
		c-0.11-0.2-0.16-0.44-0.17-0.71H175.49z"/>
</g>
<g>
	<polygon class="st0" points="14.88,6.53 3.72,33.8 6.34,33.8 16.31,8.94 26.33,33.8 28.95,33.8 17.79,6.53 16.34,2.84 	"/>
	<polygon class="st0" points="16.34,1.42 16.34,1.42 16.34,1.42 	"/>
</g>
<g>
	<path class="st0" d="M44.21,17.05c-0.92-1.7-2.29-3.11-3.96-4.06c-1.82-1.02-3.88-1.54-5.96-1.49h-7.16v11.28l1.92,4.68V13.13h5.24
		c1.75-0.05,3.48,0.39,4.99,1.27c1.37,0.82,2.49,2.02,3.21,3.45c1.48,3.07,1.48,6.64,0,9.71c-0.72,1.43-1.83,2.62-3.21,3.43
		c-1.52,0.87-3.24,1.3-4.99,1.26l-3.28,0l0.25,0.6l0.43,1.04h2.6c2.08,0.05,4.14-0.46,5.96-1.48c1.67-0.95,3.05-2.34,3.96-4.03
		C46.07,24.83,46.07,20.6,44.21,17.05z"/>
</g>
</svg>
