<?xml version="1.0" encoding="utf-8"?>
<!-- Generator: Adobe Illustrator 23.1.1, SVG Export Plug-In . SVG Version: 6.00 Build 0)  -->
<svg version="1.1" id="Capa_1" xmlns="http://www.w3.org/2000/svg" xmlns:xlink="http://www.w3.org/1999/xlink" x="0px" y="0px"
	 viewBox="0 0 131.34 71.44" style="enable-background:new 0 0 131.34 71.44;" xml:space="preserve">
<style type="text/css">
	.st0{opacity:0.569;}
	.st1{opacity:0.4;}
	.st2{fill:#FFFFFF;}
	.st3{opacity:0.7;}
	.st4{enable-background:new    ;}
</style>
<g id="Grupo_73" transform="translate(-1264.952 -3357)">
	<g id="Grupo_72" transform="translate(1123.349 3240.119)" class="st0">
		<g id="Grupo_71" transform="translate(141.604 116.881)">
			<g id="Grupo_68" transform="translate(0 37.425)" class="st1">
				<g id="Grupo_67">
					<rect id="Rect치ngulo_30" x="4.55" y="4.53" class="st2" width="11.91" height="24.95"/>
				</g>
			</g>
			<g id="Grupo_70" class="st3">
				<g id="Grupo_69">
					<rect id="Rect치ngulo_31" x="4.55" y="4.53" class="st2" width="11.91" height="24.95"/>
				</g>
			</g>
		</g>
		<rect id="Rect치ngulo_32" x="169.96" y="156.31" class="st2" width="11.91" height="27.48"/>
		<rect id="Rect치ngulo_33" x="146.15" y="146.36" class="st2" width="35.72" height="12.48"/>
	</g>
	<g class="st4">
		<path class="st2" d="M1325.57,3390.25v7.37h0.05c0.18-0.43,0.43-0.8,0.76-1.09c0.32-0.3,0.69-0.54,1.09-0.73
			c0.41-0.19,0.83-0.33,1.27-0.42c0.44-0.09,0.87-0.13,1.28-0.13c0.92,0,1.68,0.13,2.29,0.38c0.61,0.25,1.11,0.6,1.48,1.05
			c0.38,0.45,0.64,0.99,0.8,1.61c0.15,0.62,0.23,1.31,0.23,2.07v9.18h-2.3v-9.45c0-0.86-0.25-1.55-0.76-2.05s-1.2-0.76-2.08-0.76
			c-0.7,0-1.31,0.11-1.82,0.32c-0.51,0.22-0.94,0.52-1.28,0.92c-0.34,0.4-0.6,0.86-0.77,1.39c-0.17,0.53-0.26,1.11-0.26,1.74v7.88
			h-2.29v-19.28H1325.57z"/>
		<path class="st2" d="M1350.65,3409.48c-0.4,0.23-0.95,0.35-1.65,0.35c-0.59,0-1.07-0.17-1.42-0.5c-0.35-0.33-0.53-0.88-0.53-1.63
			c-0.63,0.76-1.36,1.3-2.2,1.63c-0.84,0.33-1.74,0.5-2.71,0.5c-0.63,0-1.23-0.07-1.8-0.22s-1.06-0.37-1.47-0.67
			s-0.74-0.71-0.99-1.2c-0.24-0.49-0.36-1.09-0.36-1.79c0-0.79,0.13-1.44,0.4-1.94s0.63-0.91,1.07-1.23
			c0.44-0.31,0.95-0.55,1.51-0.71c0.57-0.16,1.15-0.3,1.74-0.41c0.63-0.13,1.23-0.22,1.8-0.28c0.57-0.06,1.07-0.15,1.5-0.27
			c0.43-0.12,0.77-0.29,1.03-0.51c0.25-0.23,0.38-0.55,0.38-0.99c0-0.5-0.09-0.91-0.28-1.22c-0.19-0.31-0.43-0.54-0.73-0.7
			c-0.3-0.16-0.63-0.27-1-0.32c-0.37-0.05-0.73-0.08-1.09-0.08c-0.97,0-1.78,0.18-2.43,0.55s-1,1.07-1.05,2.09h-2.29
			c0.04-0.86,0.22-1.59,0.54-2.19c0.32-0.59,0.76-1.08,1.3-1.44s1.16-0.63,1.85-0.8s1.44-0.24,2.23-0.24c0.63,0,1.26,0.04,1.88,0.13
			c0.62,0.09,1.18,0.27,1.69,0.55s0.91,0.67,1.22,1.17c0.31,0.5,0.46,1.16,0.46,1.97v7.17c0,0.54,0.03,0.93,0.09,1.19
			c0.06,0.25,0.27,0.38,0.63,0.38c0.2,0,0.43-0.04,0.7-0.11V3409.48z M1346.93,3402.32c-0.29,0.21-0.67,0.37-1.13,0.47
			c-0.47,0.1-0.96,0.18-1.47,0.24c-0.51,0.06-1.03,0.13-1.55,0.22c-0.52,0.08-0.99,0.21-1.4,0.39c-0.41,0.18-0.75,0.43-1.01,0.77
			c-0.26,0.33-0.39,0.78-0.39,1.36c0,0.38,0.08,0.69,0.23,0.95c0.15,0.26,0.35,0.47,0.59,0.63c0.24,0.16,0.53,0.28,0.85,0.35
			c0.32,0.07,0.67,0.11,1.03,0.11c0.76,0,1.4-0.1,1.94-0.31s0.98-0.47,1.32-0.78c0.34-0.31,0.59-0.65,0.76-1.02s0.24-0.71,0.24-1.03
			V3402.32z"/>
		<path class="st2" d="M1356.62,3409.53l-5.18-13.96h2.56l3.92,11.64h0.05l3.81-11.64h2.4l-5.1,13.96H1356.62z"/>
		<path class="st2" d="M1378.65,3409.48c-0.4,0.23-0.95,0.35-1.65,0.35c-0.59,0-1.07-0.17-1.42-0.5c-0.35-0.33-0.53-0.88-0.53-1.63
			c-0.63,0.76-1.36,1.3-2.2,1.63c-0.84,0.33-1.74,0.5-2.71,0.5c-0.63,0-1.23-0.07-1.8-0.22s-1.06-0.37-1.47-0.67
			s-0.74-0.71-0.99-1.2c-0.24-0.49-0.36-1.09-0.36-1.79c0-0.79,0.13-1.44,0.4-1.94s0.63-0.91,1.07-1.23
			c0.44-0.31,0.95-0.55,1.51-0.71c0.57-0.16,1.15-0.3,1.74-0.41c0.63-0.13,1.23-0.22,1.8-0.28c0.57-0.06,1.07-0.15,1.5-0.27
			c0.43-0.12,0.77-0.29,1.03-0.51c0.25-0.23,0.38-0.55,0.38-0.99c0-0.5-0.09-0.91-0.28-1.22c-0.19-0.31-0.43-0.54-0.73-0.7
			c-0.3-0.16-0.63-0.27-1-0.32c-0.37-0.05-0.73-0.08-1.09-0.08c-0.97,0-1.78,0.18-2.43,0.55s-1,1.07-1.05,2.09h-2.29
			c0.04-0.86,0.22-1.59,0.54-2.19c0.32-0.59,0.76-1.08,1.3-1.44s1.16-0.63,1.85-0.8s1.44-0.24,2.23-0.24c0.63,0,1.26,0.04,1.88,0.13
			c0.62,0.09,1.18,0.27,1.69,0.55s0.91,0.67,1.22,1.17c0.31,0.5,0.46,1.16,0.46,1.97v7.17c0,0.54,0.03,0.93,0.09,1.19
			c0.06,0.25,0.27,0.38,0.63,0.38c0.2,0,0.43-0.04,0.7-0.11V3409.48z M1374.93,3402.32c-0.29,0.21-0.67,0.37-1.13,0.47
			c-0.47,0.1-0.96,0.18-1.47,0.24c-0.51,0.06-1.03,0.13-1.55,0.22c-0.52,0.08-0.99,0.21-1.4,0.39c-0.41,0.18-0.75,0.43-1.01,0.77
			c-0.26,0.33-0.39,0.78-0.39,1.36c0,0.38,0.08,0.69,0.23,0.95c0.15,0.26,0.35,0.47,0.59,0.63c0.24,0.16,0.53,0.28,0.85,0.35
			c0.32,0.07,0.67,0.11,1.03,0.11c0.76,0,1.4-0.1,1.94-0.31s0.98-0.47,1.32-0.78c0.34-0.31,0.59-0.65,0.76-1.02s0.24-0.71,0.24-1.03
			V3402.32z"/>
		<path class="st2" d="M1382.54,3406.41c0.22,0.35,0.5,0.63,0.85,0.84s0.75,0.36,1.19,0.45c0.44,0.09,0.9,0.13,1.36,0.13
			c0.36,0,0.74-0.03,1.13-0.08c0.4-0.05,0.76-0.15,1.09-0.3c0.33-0.14,0.61-0.36,0.82-0.63c0.22-0.28,0.32-0.63,0.32-1.07
			c0-0.59-0.23-1.04-0.67-1.35c-0.45-0.31-1.01-0.55-1.69-0.74c-0.67-0.19-1.41-0.36-2.2-0.51c-0.79-0.15-1.53-0.37-2.2-0.65
			c-0.68-0.28-1.24-0.67-1.69-1.17c-0.45-0.5-0.68-1.21-0.68-2.11c0-0.7,0.16-1.3,0.47-1.81s0.72-0.91,1.21-1.23
			c0.5-0.31,1.05-0.55,1.67-0.7c0.62-0.15,1.24-0.23,1.85-0.23c0.79,0,1.52,0.07,2.19,0.2c0.67,0.13,1.26,0.37,1.77,0.7
			c0.51,0.33,0.92,0.78,1.23,1.35c0.31,0.57,0.49,1.27,0.54,2.12h-2.29c-0.04-0.45-0.15-0.82-0.35-1.12s-0.45-0.54-0.76-0.72
			c-0.31-0.18-0.64-0.31-1.01-0.39s-0.74-0.12-1.12-0.12c-0.34,0-0.69,0.03-1.04,0.08c-0.35,0.05-0.67,0.15-0.96,0.28
			c-0.29,0.13-0.52,0.32-0.7,0.54c-0.18,0.23-0.27,0.52-0.27,0.88c0,0.4,0.14,0.72,0.42,0.99c0.28,0.26,0.63,0.48,1.07,0.65
			c0.43,0.17,0.92,0.32,1.46,0.43s1.08,0.24,1.62,0.36c0.58,0.13,1.14,0.28,1.69,0.46c0.55,0.18,1.03,0.42,1.46,0.72
			c0.42,0.3,0.77,0.67,1.03,1.12s0.39,1.01,0.39,1.67c0,0.85-0.18,1.55-0.53,2.11s-0.81,1.01-1.38,1.35s-1.21,0.58-1.92,0.72
			c-0.71,0.13-1.42,0.2-2.12,0.2c-0.77,0-1.51-0.08-2.21-0.24c-0.7-0.16-1.32-0.43-1.86-0.8s-0.97-0.86-1.3-1.46
			c-0.32-0.6-0.5-1.34-0.54-2.2h2.29C1382.21,3405.63,1382.32,3406.06,1382.54,3406.41z"/>
	</g>
</g>
</svg>
